<mxfile host="Electron" modified="2024-07-25T10:09:46.983Z" agent="Mozilla/5.0 (Macintosh; Intel Mac OS X 10_15_7) AppleWebKit/537.36 (KHTML, like Gecko) draw.io/24.6.4 Chrome/124.0.6367.207 Electron/30.0.6 Safari/537.36" etag="sO8rkggtMMbHANDrsx2K" version="24.6.4" type="device">
  <diagram name="페이지-1" id="GCQWQWvVtEpRwKNs23pa">
    <mxGraphModel dx="1114" dy="894" grid="1" gridSize="10" guides="1" tooltips="1" connect="1" arrows="1" fold="1" page="1" pageScale="1" pageWidth="827" pageHeight="1169" math="0" shadow="0">
      <root>
        <mxCell id="0" />
        <mxCell id="1" parent="0" />
        <mxCell id="rKkBX0iy5-yGDLrP_PLG-1" value="도메인" style="rounded=1;whiteSpace=wrap;html=1;align=left;fontSize=13;fontStyle=1;fillColor=#dae8fc;strokeColor=#6c8ebf;" vertex="1" parent="1">
          <mxGeometry x="150" y="80" width="380" height="160" as="geometry" />
        </mxCell>
        <mxCell id="rKkBX0iy5-yGDLrP_PLG-2" value="영속성" style="rounded=1;whiteSpace=wrap;html=1;align=left;fontSize=13;fontStyle=1;fillColor=#d5e8d4;strokeColor=#82b366;" vertex="1" parent="1">
          <mxGeometry x="150" y="270" width="380" height="80" as="geometry" />
        </mxCell>
        <mxCell id="rKkBX0iy5-yGDLrP_PLG-19" style="edgeStyle=orthogonalEdgeStyle;rounded=0;orthogonalLoop=1;jettySize=auto;html=1;entryX=1;entryY=0.5;entryDx=0;entryDy=0;endArrow=block;endFill=1;" edge="1" parent="1" source="rKkBX0iy5-yGDLrP_PLG-9" target="rKkBX0iy5-yGDLrP_PLG-11">
          <mxGeometry relative="1" as="geometry" />
        </mxCell>
        <mxCell id="rKkBX0iy5-yGDLrP_PLG-20" style="edgeStyle=orthogonalEdgeStyle;rounded=0;orthogonalLoop=1;jettySize=auto;html=1;entryX=0.5;entryY=1;entryDx=0;entryDy=0;endArrow=block;endFill=1;" edge="1" parent="1" source="rKkBX0iy5-yGDLrP_PLG-9" target="rKkBX0iy5-yGDLrP_PLG-10">
          <mxGeometry relative="1" as="geometry" />
        </mxCell>
        <mxCell id="rKkBX0iy5-yGDLrP_PLG-9" value="리포지터리 구현체" style="rounded=0;whiteSpace=wrap;html=1;fillColor=#f8cecc;strokeColor=#b85450;" vertex="1" parent="1">
          <mxGeometry x="400" y="290" width="100" height="40" as="geometry" />
        </mxCell>
        <mxCell id="rKkBX0iy5-yGDLrP_PLG-18" style="edgeStyle=orthogonalEdgeStyle;rounded=0;orthogonalLoop=1;jettySize=auto;html=1;entryX=1;entryY=0.5;entryDx=0;entryDy=0;endArrow=block;endFill=1;" edge="1" parent="1" source="rKkBX0iy5-yGDLrP_PLG-10" target="rKkBX0iy5-yGDLrP_PLG-12">
          <mxGeometry relative="1" as="geometry" />
        </mxCell>
        <mxCell id="rKkBX0iy5-yGDLrP_PLG-10" value="&lt;i&gt;&amp;lt;&amp;lt;interface&amp;gt;&amp;gt;&lt;/i&gt;&lt;div&gt;리포지터리&lt;/div&gt;" style="rounded=0;whiteSpace=wrap;html=1;fillColor=#f8cecc;strokeColor=#b85450;" vertex="1" parent="1">
          <mxGeometry x="400" y="180" width="100" height="40" as="geometry" />
        </mxCell>
        <mxCell id="rKkBX0iy5-yGDLrP_PLG-11" value="&lt;i&gt;&amp;lt;&amp;lt;ORM-Managed&amp;gt;&amp;gt;&lt;/i&gt;&lt;div&gt;엔티티&lt;/div&gt;" style="rounded=0;whiteSpace=wrap;html=1;" vertex="1" parent="1">
          <mxGeometry x="215" y="290" width="130" height="40" as="geometry" />
        </mxCell>
        <mxCell id="rKkBX0iy5-yGDLrP_PLG-12" value="엔티티" style="rounded=0;whiteSpace=wrap;html=1;" vertex="1" parent="1">
          <mxGeometry x="230" y="180" width="100" height="40" as="geometry" />
        </mxCell>
        <mxCell id="rKkBX0iy5-yGDLrP_PLG-16" style="edgeStyle=orthogonalEdgeStyle;rounded=0;orthogonalLoop=1;jettySize=auto;html=1;entryX=0.5;entryY=0;entryDx=0;entryDy=0;endArrow=block;endFill=1;" edge="1" parent="1" source="rKkBX0iy5-yGDLrP_PLG-13" target="rKkBX0iy5-yGDLrP_PLG-12">
          <mxGeometry relative="1" as="geometry">
            <Array as="points">
              <mxPoint x="280" y="130" />
            </Array>
          </mxGeometry>
        </mxCell>
        <mxCell id="rKkBX0iy5-yGDLrP_PLG-17" style="edgeStyle=orthogonalEdgeStyle;rounded=0;orthogonalLoop=1;jettySize=auto;html=1;entryX=0.5;entryY=0;entryDx=0;entryDy=0;endArrow=block;endFill=1;" edge="1" parent="1" source="rKkBX0iy5-yGDLrP_PLG-13" target="rKkBX0iy5-yGDLrP_PLG-10">
          <mxGeometry relative="1" as="geometry">
            <Array as="points">
              <mxPoint x="450" y="130" />
            </Array>
          </mxGeometry>
        </mxCell>
        <mxCell id="rKkBX0iy5-yGDLrP_PLG-13" value="서비스" style="rounded=0;whiteSpace=wrap;html=1;" vertex="1" parent="1">
          <mxGeometry x="314" y="110" width="100" height="40" as="geometry" />
        </mxCell>
      </root>
    </mxGraphModel>
  </diagram>
</mxfile>
